# xmcd CD database file
#
# Track frame offsets:
#	150
#	17398
#	29392
#	43760
#	57761
#	71242
#	84949
#	102940
#	115866
#	127935
#	142445
#	158464
#	174579
#	187892
#	207144
#	221162
#	237500
#	252147
#	264304
#	278715
#	293028
#
# Disc length: 4072 seconds
#
# Revision: 1
# Processed by: cddbd v1.5.2PL0 Copyright (c) Steve Scherf et al.
# Submitted via: CDex 1.51
#
DISCID=2a0fe615
DTITLE=Ben Webster - The Frog - 1932-46
DYEAR=1900
DGENRE=Jazz
TTITLE0=Memories Of You
TTITLE1=Ten Lessons With Timothy
TTITLE2=You're Only Happy When I'm Blue
TTITLE3=Cadillac Slim
TTITLE4=Ben Rides Out
TTITLE5=Kat's Fur
TTITLE6=Victory Stride
TTITLE7=Jumpin' With Judy
TTITLE8=Palm Springs Jump
TTITLE9=Cotton Tail
TTITLE10=All Too Soon
TTITLE11=Linger Awhile
TTITLE12=Until Tonight (Mauve)
TTITLE13=St James Infirmary
TTITLE14=Mobile Bay (Take 1)
TTITLE15=Just A-Settin' And A-Rockin'
TTITLE16=Five O'Clock Drag
TTITLE17=Early Session Hop
TTITLE18=The Voice Of Old Man River
TTITLE19=Tidal Wave
TTITLE20=Lafayette
EXTD=
EXTT0=
EXTT1=
EXTT2=
EXTT3=
EXTT4=
EXTT5=
EXTT6=
EXTT7=
EXTT8=
EXTT9=
EXTT10=
EXTT11=
EXTT12=
EXTT13=
EXTT14=
EXTT15=
EXTT16=
EXTT17=
EXTT18=
EXTT19=
EXTT20=
PLAYORDER=
